<svg id="visual" viewBox="0 0 900 600" width="900" height="600" xmlns="http://www.w3.org/2000/svg" xmlns:xlink="http://www.w3.org/1999/xlink" version="1.1"><rect x="0" y="0" width="900" height="600" fill="#fff"></rect><path d="M0 134L16.7 120C33.3 106 66.7 78 100 69.3C133.3 60.7 166.7 71.3 200 86.7C233.3 102 266.7 122 300 120.7C333.3 119.3 366.7 96.7 400 80.5C433.3 64.3 466.7 54.7 500 48.5C533.3 42.3 566.7 39.7 600 50.2C633.3 60.7 666.7 84.3 700 95.8C733.3 107.3 766.7 106.7 800 96.5C833.3 86.3 866.7 66.7 883.3 56.8L900 47L900 0L883.3 0C866.7 0 833.3 0 800 0C766.7 0 733.3 0 700 0C666.7 0 633.3 0 600 0C566.7 0 533.3 0 500 0C466.7 0 433.3 0 400 0C366.7 0 333.3 0 300 0C266.7 0 233.3 0 200 0C166.7 0 133.3 0 100 0C66.7 0 33.3 0 16.7 0L0 0Z" fill="#4c6444" stroke-linecap="round" stroke-linejoin="miter"></path></svg>